<svg width="197" height="55" viewBox="0 0 197 55" fill="none" xmlns="http://www.w3.org/2000/svg">
<path d="M25.4068 0.156836C20.0405 1.14388 15.7677 4.88919 14.1387 9.79717L14.1091 9.89769C13.8091 10.7075 13.6347 11.6417 13.6347 12.6168C13.6347 12.818 13.6417 13.0191 13.6574 13.2168L13.6556 13.1896C13.6208 13.4112 13.6016 13.6669 13.6016 13.926C13.6016 14.6864 13.7725 15.4074 14.0777 16.0535L14.0638 16.0211C14.5713 17.4582 15.9316 18.4759 17.5395 18.5015H17.543C20.2219 18.8544 22.8536 17.6116 25.6736 14.6573C26.6677 13.7947 27.3444 12.5997 27.5206 11.253L27.5241 11.2257C27.4421 10.2915 26.9817 9.47491 26.2928 8.91749L26.2876 8.91239C25.9702 8.76238 25.5952 8.67374 25.201 8.67374C24.4598 8.67374 23.7936 8.98397 23.328 9.47666L23.3262 9.47833C22.7368 9.92503 22.3565 10.6154 22.3496 11.3911V11.3927C22.3496 12.5265 23.6175 13.7368 24.479 13.4146C24.8087 13.2936 24.8505 13.3072 24.8505 13.6123C24.7162 14.4033 24.329 15.0887 23.7709 15.6017L23.7692 15.6035C22.8571 16.1473 21.7549 16.4695 20.5759 16.4695C19.6306 16.4695 18.7359 16.2632 17.9355 15.8932L17.9739 15.9086C15.8897 14.8977 15.2322 12.1548 16.2351 8.6959C17.0687 4.86191 20.5026 2.02693 24.615 2.02693C24.7267 2.02693 24.8383 2.02864 24.9481 2.03376H24.9324C25.1139 2.01671 25.3231 2.00648 25.5342 2.00648C28.213 2.00648 30.5116 3.59188 31.5021 5.85407L31.5178 5.89499C33.602 10.8882 32.2382 16.2018 27.4613 21.7934C26.3695 23.1401 25.147 24.3147 23.7901 25.3256L23.7413 25.3614C22.878 24.9693 22.1577 24.5806 21.4688 24.1511L21.5473 24.1971C18.354 22.0184 14.4178 20.6734 10.1694 20.5608H10.1415C10.0037 20.5541 9.84146 20.5506 9.67753 20.5506C8.64159 20.5506 7.64054 20.7057 6.70051 20.9921L6.77027 20.9734C4.00252 21.7269 1.73704 23.4657 0.350547 25.7705L0.322643 25.82C0.129057 26.2325 0.0174401 26.7149 0.0174401 27.223C0.0174401 27.3048 0.0209281 27.3867 0.0261602 27.4684V27.4582C0.00872003 27.5623 0 27.6816 0 27.8026C0 28.3396 0.18661 28.8323 0.500533 29.226L0.497044 29.2209C1.28185 30.1739 2.34745 30.878 3.57349 31.2121L3.61535 31.2223C4.66873 31.4524 5.87908 31.5854 7.12082 31.5854C8.51255 31.5854 9.86413 31.4201 11.1582 31.1064L11.0431 31.1302C14.0254 30.5233 16.5995 29.7716 19.0795 28.834L18.7342 28.9482L20.5044 28.2441L21.9781 28.9192C22.5449 29.1357 23.0297 29.3812 23.4849 29.6659L23.4518 29.6454C22.796 30.1364 22.0444 30.641 21.2683 31.1098L21.1497 31.1762C19.8957 31.9724 18.3296 32.9833 17.6704 33.4282C17.0112 33.8731 15.2427 34.9284 13.7376 35.7927C12.2326 36.657 10.2583 37.8469 9.34968 38.4436C7.64228 39.5772 4.69838 42.1974 5.13439 42.2111C7.33882 41.1541 9.23456 39.9762 10.9821 38.6226L10.9158 38.672C15.7118 35.3801 18.3436 34.3863 22.3513 34.3863C22.5745 34.3658 22.8344 34.3556 23.0977 34.3556C25.501 34.3556 27.6741 35.3102 29.2454 36.853C30.9371 38.4862 31.9853 40.7535 31.9853 43.2612C31.9853 43.4317 31.98 43.6004 31.9713 43.7692L31.973 43.7453C31.98 43.8766 31.9836 44.0283 31.9836 44.1834C31.9836 46.657 31.0348 48.9141 29.4757 50.6257L29.4843 50.6154C28.1711 51.9826 26.3103 52.8332 24.2453 52.8332C23.9872 52.8332 23.7343 52.8196 23.4832 52.7941L23.5146 52.7975C23.3646 52.8094 23.1902 52.8163 23.0158 52.8163C21.7741 52.8163 20.6143 52.4702 19.6341 51.8718L19.6603 51.8872C18.3052 50.9512 17.4315 49.4272 17.4315 47.7037C17.4315 47.5537 17.4384 47.4054 17.4507 47.2588L17.4489 47.2775C17.4384 47.1531 17.4315 47.0082 17.4315 46.8616C17.4315 45.1773 18.2581 43.6822 19.5347 42.7395L19.5487 42.7293C20.1329 42.4122 20.8323 42.2247 21.5735 42.2247C22.0374 42.2247 22.4839 42.298 22.9007 42.4327L22.8711 42.4241L23.4518 42.6696L23.0594 43.2373C22.8135 43.5783 22.667 44.001 22.667 44.4579C22.667 44.4698 22.667 44.4818 22.667 44.4954V44.4937C22.6635 44.5312 22.6617 44.5755 22.6617 44.6198C22.6617 45.0938 22.9042 45.5114 23.2739 45.7637L23.2792 45.7671C23.5407 46.1354 23.9732 46.3758 24.4615 46.3758C24.5261 46.3758 24.5889 46.3723 24.6499 46.3638H24.643C25.7591 46.2819 26.7306 45.7382 27.3689 44.9301L27.3758 44.9216C27.5467 44.5227 27.6444 44.0573 27.6444 43.5714C27.6444 42.6099 27.259 41.7371 26.6294 41.0911L26.6311 41.0927C25.9265 40.6342 25.0598 40.3614 24.1285 40.3614C23.5809 40.3614 23.0577 40.4551 22.5711 40.6291L22.6025 40.6189C20.0806 41.4832 17.9267 42.8299 16.1618 44.5551C15.1537 45.6699 14.5382 47.1446 14.5382 48.7607C14.5382 51.1097 15.8391 53.1606 17.775 54.2636L17.8064 54.2806C18.6296 54.5551 19.5783 54.7136 20.5655 54.7136C21.5682 54.7136 22.5327 54.55 23.4309 54.2482L23.368 54.267C29.9325 52.6594 33.7101 49.4118 34.7583 44.4477C34.9518 43.7095 35.0617 42.864 35.0617 41.9911C35.0617 40.3614 34.6745 38.8204 33.9874 37.4497L34.0153 37.5111C33.241 36.0757 32.1736 34.8841 30.883 33.9788L30.8517 33.9584C29.0274 32.9969 26.8578 32.431 24.554 32.431C23.1449 32.431 21.7862 32.6423 20.5114 33.0344L20.6073 33.0089C20.262 33.1247 19.8574 33.2117 19.4406 33.2526L19.4179 33.2544C19.3865 33.239 20.4992 32.4429 21.877 31.5087C24.336 29.8244 24.3988 29.7937 24.8226 30.0086C27.0549 30.8575 29.6396 31.4235 32.3341 31.5837L32.4073 31.5871C38.0789 31.8923 44.659 29.7682 47.9814 26.5173C49.0958 25.5677 49.919 24.3164 50.3184 22.8947L50.3306 22.8418C50.5172 22.3815 50.6271 21.8497 50.6271 21.2922C50.6271 19.7937 49.844 18.4759 48.6546 17.7055L48.6389 17.6952C48.0808 17.4037 47.8087 17.373 46.5704 17.4344C43.297 17.6167 38.4224 19.838 30.0721 25.0154L26.734 27.0968L25.9894 26.7439C25.5342 26.5428 25.1435 26.3161 24.7807 26.0569L24.7999 26.0689L24.3778 25.7467L25.8516 24.6744C27.9427 23.0941 29.7529 21.3041 31.2981 19.3079L31.3504 19.2363C32.784 17.1855 34.0135 14.8329 34.9187 12.3304L34.9867 12.1155C35.3146 10.999 35.5012 9.71531 35.5012 8.39069C35.5012 7.56904 35.4297 6.7627 35.2901 5.97852L35.3024 6.06205C34.5629 2.60484 31.4812 0.0409137 27.7839 0.0153427H27.7804C27.613 0.00681896 27.4177 0 27.2223 0C26.584 0 25.9596 0.0562564 25.3527 0.16195L25.4173 0.153427L25.4068 0.156836ZM25.8812 10.1261C26.8683 11.0757 25.8184 12.7293 24.5958 12.1633C24.1285 11.9639 23.8075 11.5155 23.8075 10.9939C23.8075 10.9154 23.8146 10.837 23.8285 10.762L23.8267 10.7705C23.9087 10.196 24.4075 9.75963 25.011 9.75963C25.3545 9.75963 25.6632 9.90112 25.8812 10.1261ZM45.6845 20.2966C46.9873 20.9411 47.1722 22.8248 46.1379 24.9369C45.1282 26.9417 43.2133 28.3805 40.9303 28.7504L40.8885 28.7555C39.5525 29.0266 38.0178 29.1817 36.4465 29.1817C35.3547 29.1817 34.2804 29.1067 33.2288 28.9618L33.3491 28.9754C31.5824 28.7266 29.9971 28.3242 28.4867 27.7753L28.649 27.8265C28.0229 27.4906 41.0908 20.3836 43.0319 20.0068C43.29 19.954 43.5882 19.9233 43.8917 19.9233C44.5387 19.9233 45.1526 20.0597 45.7072 20.3069L45.6792 20.2966H45.6845ZM10.7553 23.6038C12.5343 23.8629 14.1387 24.3897 15.6003 25.1432L15.5182 25.104C16.7757 25.7075 17.8587 26.4234 18.8284 27.2622L18.8127 27.2485C18.7342 27.2792 17.9825 27.5401 17.1507 27.7941C14.7317 28.6294 11.9413 29.1118 9.03404 29.1118C8.10099 29.1118 7.17837 29.0624 6.27149 28.9652L6.3831 28.9754C4.11239 28.5016 3.32933 27.6901 3.31188 25.7893C3.31188 24.8245 3.34328 24.717 3.79672 24.2721C4.14378 23.9618 4.56235 23.7248 5.028 23.5885L5.05067 23.5834C5.88606 23.4606 6.8505 23.3907 7.83064 23.3907C8.86137 23.3907 9.87287 23.4675 10.8617 23.6175L10.7519 23.6038H10.7553ZM26.0085 43.1469C26.2614 43.3209 26.4254 43.6055 26.4254 43.9277C26.4254 43.9738 26.4219 44.0181 26.4166 44.0607V44.0556C26.4166 45.1892 25.29 45.8012 24.4895 45.0971C24.1668 44.8892 23.9575 44.5363 23.9575 44.1357C23.9575 43.8169 24.0901 43.5305 24.3029 43.3208C24.5052 43.0242 24.847 42.8333 25.2325 42.8333C25.5376 42.8333 25.8149 42.9526 26.0155 43.1469H26.0085Z" fill="#54BD95"/>
<path d="M69.94 13.4C70.3707 13.4 70.738 13.552 71.042 13.856C71.346 14.1347 71.498 14.502 71.498 14.958V38.442C71.498 38.8727 71.3333 39.24 71.004 39.544C70.7 39.848 70.3327 40 69.902 40C69.4207 40 69.0407 39.848 68.762 39.544C68.4833 39.24 68.344 38.8727 68.344 38.442V14.958C68.344 14.502 68.496 14.1347 68.8 13.856C69.104 13.552 69.484 13.4 69.94 13.4ZM87.458 13.4C87.914 13.4 88.2813 13.552 88.56 13.856C88.864 14.1347 89.016 14.502 89.016 14.958V38.442C89.016 38.8727 88.864 39.24 88.56 39.544C88.256 39.848 87.876 40 87.42 40C86.9893 40 86.622 39.848 86.318 39.544C86.014 39.24 85.862 38.8727 85.862 38.442V14.958C85.862 14.502 86.014 14.1347 86.318 13.856C86.6473 13.552 87.0273 13.4 87.458 13.4ZM69.788 24.99H87.496L87.458 27.954H69.674L69.788 24.99ZM111.35 20.164C111.78 20.164 112.135 20.316 112.414 20.62C112.718 20.8987 112.87 21.2533 112.87 21.684V38.442C112.87 38.8727 112.718 39.24 112.414 39.544C112.135 39.848 111.78 40 111.35 40C110.894 40 110.526 39.848 110.248 39.544C109.969 39.24 109.83 38.8727 109.83 38.442V34.832L110.552 34.756C110.552 35.3133 110.362 35.9213 109.982 36.58C109.602 37.2387 109.082 37.8593 108.424 38.442C107.765 38.9993 106.98 39.468 106.068 39.848C105.181 40.2027 104.218 40.38 103.18 40.38C101.457 40.38 99.9116 39.9367 98.5436 39.05C97.1756 38.138 96.0863 36.9093 95.2756 35.364C94.4903 33.8187 94.0976 32.058 94.0976 30.082C94.0976 28.0807 94.4903 26.32 95.2756 24.8C96.0863 23.2547 97.1756 22.0513 98.5436 21.19C99.9116 20.3033 101.432 19.86 103.104 19.86C104.193 19.86 105.206 20.0373 106.144 20.392C107.081 20.7467 107.892 21.228 108.576 21.836C109.285 22.444 109.83 23.1153 110.21 23.85C110.615 24.5847 110.818 25.3193 110.818 26.054L109.83 25.826V21.684C109.83 21.2533 109.969 20.8987 110.248 20.62C110.526 20.316 110.894 20.164 111.35 20.164ZM103.522 37.568C104.788 37.568 105.903 37.2387 106.866 36.58C107.854 35.9213 108.614 35.0347 109.146 33.92C109.703 32.78 109.982 31.5007 109.982 30.082C109.982 28.6887 109.703 27.4347 109.146 26.32C108.614 25.18 107.854 24.2933 106.866 23.66C105.903 23.0013 104.788 22.672 103.522 22.672C102.28 22.672 101.166 22.9887 100.178 23.622C99.2149 24.2553 98.4549 25.1293 97.8976 26.244C97.3403 27.3587 97.0616 28.638 97.0616 30.082C97.0616 31.5007 97.3276 32.78 97.8596 33.92C98.4169 35.0347 99.1769 35.9213 100.14 36.58C101.128 37.2387 102.255 37.568 103.522 37.568ZM121.847 38.442C121.847 38.8727 121.695 39.24 121.391 39.544C121.087 39.848 120.72 40 120.289 40C119.859 40 119.504 39.848 119.225 39.544C118.947 39.24 118.807 38.8727 118.807 38.442V13.4C118.807 12.9693 118.947 12.6147 119.225 12.336C119.529 12.032 119.897 11.88 120.327 11.88C120.783 11.88 121.151 12.032 121.429 12.336C121.708 12.6147 121.847 12.9693 121.847 13.4V38.442ZM131.088 38.442C131.088 38.8727 130.936 39.24 130.632 39.544C130.328 39.848 129.96 40 129.53 40C129.099 40 128.744 39.848 128.466 39.544C128.187 39.24 128.048 38.8727 128.048 38.442V13.4C128.048 12.9693 128.187 12.6147 128.466 12.336C128.77 12.032 129.137 11.88 129.568 11.88C130.024 11.88 130.391 12.032 130.67 12.336C130.948 12.6147 131.088 12.9693 131.088 13.4V38.442ZM145.695 40.38C143.668 40.38 141.895 39.9493 140.375 39.088C138.855 38.2267 137.664 37.0487 136.803 35.554C135.967 34.034 135.549 32.286 135.549 30.31C135.549 28.106 135.979 26.2313 136.841 24.686C137.727 23.1153 138.867 21.9247 140.261 21.114C141.679 20.278 143.174 19.86 144.745 19.86C145.91 19.86 147.037 20.0753 148.127 20.506C149.216 20.9367 150.179 21.57 151.015 22.406C151.851 23.2167 152.522 24.2047 153.029 25.37C153.535 26.51 153.801 27.7893 153.827 29.208C153.827 29.6133 153.675 29.9553 153.371 30.234C153.067 30.5127 152.712 30.652 152.307 30.652H137.297L136.613 28.03H151.243L150.635 28.562V27.726C150.533 26.6873 150.179 25.8007 149.571 25.066C148.988 24.306 148.266 23.7233 147.405 23.318C146.569 22.9127 145.682 22.71 144.745 22.71C143.985 22.71 143.225 22.8493 142.465 23.128C141.73 23.3813 141.059 23.812 140.451 24.42C139.868 25.0027 139.387 25.7627 139.007 26.7C138.652 27.6373 138.475 28.7647 138.475 30.082C138.475 31.5513 138.766 32.8433 139.349 33.958C139.957 35.0727 140.793 35.9593 141.857 36.618C142.921 37.2513 144.162 37.568 145.581 37.568C146.467 37.568 147.24 37.454 147.899 37.226C148.557 36.998 149.127 36.7193 149.609 36.39C150.09 36.0353 150.495 35.6807 150.825 35.326C151.154 35.098 151.471 34.984 151.775 34.984C152.155 34.984 152.459 35.1107 152.687 35.364C152.94 35.6173 153.067 35.9213 153.067 36.276C153.067 36.7067 152.864 37.0867 152.459 37.416C151.749 38.2013 150.787 38.898 149.571 39.506C148.355 40.0887 147.063 40.38 145.695 40.38ZM172.916 20.05C173.347 20.05 173.702 20.202 173.98 20.506C174.284 20.7847 174.436 21.1393 174.436 21.57V38.138C174.436 40.266 174.018 42.0267 173.182 43.42C172.346 44.8387 171.219 45.89 169.8 46.574C168.407 47.258 166.824 47.6 165.05 47.6C164.062 47.6 163.112 47.4987 162.2 47.296C161.288 47.0933 160.541 46.8273 159.958 46.498C159.477 46.27 159.135 45.9787 158.932 45.624C158.755 45.2947 158.73 44.94 158.856 44.56C159.034 44.104 159.287 43.7873 159.616 43.61C159.971 43.4327 160.338 43.4327 160.718 43.61C161.124 43.7873 161.706 44.028 162.466 44.332C163.252 44.6613 164.126 44.826 165.088 44.826C166.406 44.826 167.533 44.5727 168.47 44.066C169.408 43.5593 170.13 42.812 170.636 41.824C171.143 40.8613 171.396 39.658 171.396 38.214V35.516L171.852 36.466C171.447 37.2513 170.902 37.9353 170.218 38.518C169.534 39.1007 168.749 39.5567 167.862 39.886C166.976 40.2153 166 40.38 164.936 40.38C163.492 40.38 162.264 40.076 161.25 39.468C160.262 38.8347 159.502 37.9733 158.97 36.884C158.464 35.7693 158.21 34.49 158.21 33.046V21.57C158.21 21.1393 158.35 20.7847 158.628 20.506C158.932 20.202 159.3 20.05 159.73 20.05C160.186 20.05 160.554 20.202 160.832 20.506C161.111 20.7847 161.25 21.1393 161.25 21.57V32.362C161.25 34.0847 161.63 35.3893 162.39 36.276C163.15 37.1373 164.328 37.568 165.924 37.568C166.938 37.568 167.85 37.34 168.66 36.884C169.496 36.428 170.155 35.8073 170.636 35.022C171.143 34.2113 171.396 33.3247 171.396 32.362V21.57C171.396 21.1393 171.536 20.7847 171.814 20.506C172.093 20.202 172.46 20.05 172.916 20.05ZM179.878 20.126C180.359 20.126 180.765 20.3413 181.094 20.772L194.318 37.644C194.521 37.9227 194.622 38.2267 194.622 38.556C194.622 38.9867 194.47 39.354 194.166 39.658C193.862 39.962 193.507 40.114 193.102 40.114C192.621 40.114 192.203 39.886 191.848 39.43L178.624 22.596C178.421 22.3173 178.32 22.0133 178.32 21.684C178.32 21.228 178.472 20.8607 178.776 20.582C179.105 20.278 179.473 20.126 179.878 20.126ZM179.878 40.076C179.549 40.076 179.219 39.9493 178.89 39.696C178.561 39.4427 178.396 39.1133 178.396 38.708C178.396 38.3787 178.523 38.062 178.776 37.758L185.008 29.892L186.604 32.4L181.094 39.468C180.79 39.8733 180.385 40.076 179.878 40.076ZM193.102 20.126C193.533 20.126 193.875 20.2653 194.128 20.544C194.407 20.8227 194.546 21.1393 194.546 21.494C194.546 21.646 194.508 21.8107 194.432 21.988C194.381 22.1653 194.293 22.33 194.166 22.482L187.972 30.424L186.376 28.106L191.848 20.81C192.203 20.354 192.621 20.126 193.102 20.126Z" fill="black"/>
</svg>
